<svg xmlns="http://www.w3.org/2000/svg" xmlns:xlink="http://www.w3.org/1999/xlink" version="1.1" width="532.195" height="532.196" style="" xml:space="preserve"><rect id="backgroundrect" width="100%" height="100%" x="0" y="0" fill="none" stroke="none"/>
















<g class="currentLayer" style=""><title>Layer 1</title><g id="svg_1" class="" stroke="#0b0bd5" stroke-opacity="1" fill-opacity="1" fill="#f29558">
	<g id="svg_2" stroke="#0b0bd5" stroke-opacity="1" fill="#f29558">
		<polygon points="386.605,508.282 66.022,508.282 66.022,56.797 131.992,56.797 131.992,103.132 336.09,103.132 336.09,56.797     386.605,56.797 386.605,248.536 410.521,225.076 410.521,32.883 336.09,32.883 336.09,0 274.038,0 274.038,23.915 195.329,23.915     195.329,0 131.992,0 131.992,32.883 42.107,32.883 42.107,532.196 410.521,532.196 410.521,373.667 386.605,403.141   " id="svg_3" stroke="#0b0bd5" stroke-opacity="1" fill="#f29558"/>
		<rect x="111.125" y="165.9080047607422" width="245.82000732421875" height="17.93600082397461" id="svg_4" stroke="#0b0bd5" stroke-opacity="1" fill="#f29558"/>
		<rect x="111.125" y="209.25399780273438" width="245.82000732421875" height="17.93600082397461" id="svg_5" stroke="#0b0bd5" stroke-opacity="1" fill="#f29558"/>
		<rect x="111.125" y="254.32200622558594" width="245.82000732421875" height="17.93600082397461" id="svg_6" stroke="#0b0bd5" stroke-opacity="1" fill="#f29558"/>
		<path d="M490.088,255.051l-38.511-36.83l-17.516,18.298l-8.618-8.244l-155.13,162.184l-1.244,5.23l-17.136,71.523l70.693-20.295    l5.173-1.483l155.13-162.172l-10.357-9.908L490.088,255.051z M450.946,270.284L310.19,417.421l-11.116-10.638L439.83,259.641    L450.946,270.284z M425.841,246.276l9.388,8.98L294.473,402.393l-9.388-8.991L425.841,246.276z M281.301,445.54l-9.026-8.629    l7.438-31.037l32.275,30.85L281.301,445.54z M324.18,430.792l-9.389-8.991l140.756-147.125l9.389,8.985L324.18,430.792z" id="svg_7" stroke="#0b0bd5" stroke-opacity="1" fill="#f29558"/>
	</g>
</g><g id="svg_8">
</g><g id="svg_9">
</g><g id="svg_10">
</g><g id="svg_11">
</g><g id="svg_12">
</g><g id="svg_13">
</g><g id="svg_14">
</g><g id="svg_15">
</g><g id="svg_16">
</g><g id="svg_17">
</g><g id="svg_18">
</g><g id="svg_19">
</g><g id="svg_20">
</g><g id="svg_21">
</g><g id="svg_22">
</g></g></svg>