<svg xmlns="http://www.w3.org/2000/svg" xmlns:xlink="http://www.w3.org/1999/xlink" version="1.1" style="enable-background:new 0 0 496 496;" xml:space="preserve" width="496" height="496"><rect id="backgroundrect" width="100%" height="100%" x="0" y="0" fill="none" stroke="none"/>
















<g class="currentLayer" style=""><title>Layer 1</title><g id="svg_1" class="" fill-opacity="1" fill="#f29558">
	<g id="svg_2" fill="#f29558">
		<g id="svg_3" fill="#f29558">
			<path d="M352,0H144c-22.056,0-40,17.944-40,40v416c0,22.056,17.944,40,40,40h208c22.056,0,40-17.944,40-40V40     C392,17.944,374.056,0,352,0z M120,320h72v96h-72V320z M376,456c0,13.232-10.768,24-24,24H144c-13.232,0-24-10.768-24-24v-24h256     V456z M208,416v-96h80v96H208z M376,416h-72v-96h72V416z M376,304H120V128h256V304z M376,112H120V64h256V112z M376,48H120v-8     c0-13.232,10.768-24,24-24h208c13.232,0,24,10.768,24,24V48z" id="svg_4" fill="#f29558"/>
			<rect x="216" y="448" width="64" height="16" id="svg_5" fill="#f29558"/>
			<rect x="136" y="80" width="16" height="16" id="svg_6" fill="#f29558"/>
			<rect x="168" y="80" width="16" height="16" id="svg_7" fill="#f29558"/>
			<rect x="200" y="80" width="16" height="16" id="svg_8" fill="#f29558"/>
			<path d="M264,144H136v144h128V144z M248,272h-96V160h96V272z" id="svg_9" fill="#f29558"/>
			<rect x="280" y="144" width="80" height="16" id="svg_10" fill="#f29558"/>
			<rect x="280" y="176" width="80" height="16" id="svg_11" fill="#f29558"/>
			<rect x="280" y="208" width="80" height="16" id="svg_12" fill="#f29558"/>
			<rect x="280" y="240" width="80" height="16" id="svg_13" fill="#f29558"/>
			<rect x="280" y="272" width="80" height="16" id="svg_14" fill="#f29558"/>
		</g>
	</g>
</g><g id="svg_15">
</g><g id="svg_16">
</g><g id="svg_17">
</g><g id="svg_18">
</g><g id="svg_19">
</g><g id="svg_20">
</g><g id="svg_21">
</g><g id="svg_22">
</g><g id="svg_23">
</g><g id="svg_24">
</g><g id="svg_25">
</g><g id="svg_26">
</g><g id="svg_27">
</g><g id="svg_28">
</g><g id="svg_29">
</g></g></svg>