<svg xmlns="http://www.w3.org/2000/svg" xmlns:xlink="http://www.w3.org/1999/xlink" version="1.1" style="" xml:space="preserve" width="512" height="512"><rect id="backgroundrect" width="100%" height="100%" x="0" y="0" fill="none" stroke="none"/>








































<g class="currentLayer" style=""><title>Layer 1</title><g id="svg_1" class="" fill-opacity="1" fill="#f29558">
	<g id="svg_2" fill="#f29558">
		<path d="M371.093,0H149.227c-18.773,0-34.133,15.36-34.133,34.133v443.733c0,18.773,15.36,34.133,34.133,34.133h221.867    c18.773,0,34.133-15.36,34.133-34.133V34.133C405.227,15.36,389.867,0,371.093,0z M388.16,477.867    c0,9.387-7.68,17.067-17.067,17.067H149.227c-9.387,0-17.067-7.68-17.067-17.067V34.133c0-9.387,7.68-17.067,17.067-17.067    h221.867c9.387,0,17.067,7.68,17.067,17.067V477.867z" id="svg_3" fill="#f29558"/>
	</g>
</g><g id="svg_4" class="" fill-opacity="1" fill="#f29558">
	<g id="svg_5" fill="#f29558">
		<path d="M115.093,51.2v392.533h290.133V51.2H115.093z M388.16,426.667h-256v-358.4h256V426.667z" id="svg_6" fill="#f29558"/>
	</g>
</g><g id="svg_7" class="" fill-opacity="1" fill="#f29558">
	<g id="svg_8" fill="#f29558">
		<path d="M294.293,25.6h-42.667c-5.12,0-8.533,3.413-8.533,8.533c0,5.12,3.413,8.533,8.533,8.533h42.667    c5.12,0,8.533-3.413,8.533-8.533C302.827,29.013,299.413,25.6,294.293,25.6z" id="svg_9" fill="#f29558"/>
	</g>
</g><g id="svg_10" class="" fill-opacity="1" fill="#f29558">
	<g id="svg_11" fill="#f29558">
		<path d="M226.027,25.6h-8.533c-5.12,0-8.533,3.413-8.533,8.533c0,5.12,3.413,8.533,8.533,8.533h8.533    c5.12,0,8.533-3.413,8.533-8.533C234.56,29.013,231.147,25.6,226.027,25.6z" id="svg_12" fill="#f29558"/>
	</g>
</g><g id="svg_22" class="" fill-opacity="1" fill="#f29558">
	<g id="svg_23" fill="#f29558">
		<path d="M260.16,435.2c-18.773,0-34.133,15.36-34.133,34.133c0,18.773,15.36,34.133,34.133,34.133s34.133-15.36,34.133-34.133    C294.293,450.56,278.933,435.2,260.16,435.2z M260.16,486.4c-9.387,0-17.067-7.68-17.067-17.067s7.68-17.067,17.067-17.067    s17.067,7.68,17.067,17.067S269.547,486.4,260.16,486.4z" id="svg_24" fill="#f29558"/>
	</g>
</g><g id="svg_25" class="" fill-opacity="1" fill="#f29558">
	<g id="svg_26" fill="#f29558">
		<path d="M208.96,102.4h-34.133c-5.12,0-8.533,3.413-8.533,8.533v34.133c0,5.12,3.413,8.533,8.533,8.533h34.133    c5.12,0,8.533-3.413,8.533-8.533v-34.133C217.493,105.813,214.08,102.4,208.96,102.4z M200.427,136.533H183.36v-17.067h17.067    V136.533z" id="svg_27" fill="#f29558"/>
	</g>
</g><g id="svg_28" class="" fill-opacity="1" fill="#f29558">
	<g id="svg_29" fill="#f29558">
		<path d="M277.227,102.4h-34.133c-5.12,0-8.533,3.413-8.533,8.533v34.133c0,5.12,3.413,8.533,8.533,8.533h34.133    c5.12,0,8.533-3.413,8.533-8.533v-34.133C285.76,105.813,282.347,102.4,277.227,102.4z M268.693,136.533h-17.067v-17.067h17.067    V136.533z" id="svg_30" fill="#f29558"/>
	</g>
</g><g id="svg_31" class="" fill-opacity="1" fill="#f29558">
	<g id="svg_32" fill="#f29558">
		<path d="M208.96,170.667h-34.133c-5.12,0-8.533,3.413-8.533,8.533v34.133c0,5.12,3.413,8.533,8.533,8.533h34.133    c5.12,0,8.533-3.413,8.533-8.533V179.2C217.493,174.08,214.08,170.667,208.96,170.667z M200.427,204.8H183.36v-17.067h17.067    V204.8z" id="svg_33" fill="#f29558"/>
	</g>
</g><g id="svg_34" class="" fill-opacity="1" fill="#f29558">
	<g id="svg_35" fill="#f29558">
		<path d="M277.227,170.667h-34.133c-5.12,0-8.533,3.413-8.533,8.533v34.133c0,5.12,3.413,8.533,8.533,8.533h34.133    c5.12,0,8.533-3.413,8.533-8.533V179.2C285.76,174.08,282.347,170.667,277.227,170.667z M268.693,204.8h-17.067v-17.067h17.067    V204.8z" id="svg_36" fill="#f29558"/>
	</g>
</g><g id="svg_37" class="" fill-opacity="1" fill="#f29558">
	<g id="svg_38" fill="#f29558">
		<path d="M345.493,102.4H311.36c-5.12,0-8.533,3.413-8.533,8.533v34.133c0,5.12,3.413,8.533,8.533,8.533h34.133    c5.12,0,8.533-3.413,8.533-8.533v-34.133C354.027,105.813,350.613,102.4,345.493,102.4z M336.96,136.533h-17.067v-17.067h17.067    V136.533z" id="svg_39" fill="#f29558"/>
	</g>
</g><g id="svg_40" class="" fill-opacity="1" fill="#f29558">
	<g id="svg_41" fill="#f29558">
		<path d="M208.96,341.333h-34.133c-5.12,0-8.533,3.413-8.533,8.533V384c0,5.12,3.413,8.533,8.533,8.533h34.133    c5.12,0,8.533-3.413,8.533-8.533v-34.133C217.493,344.747,214.08,341.333,208.96,341.333z M200.427,375.467H183.36V358.4h17.067    V375.467z" id="svg_42" fill="#f29558"/>
	</g>
</g><g id="svg_43" class="" fill-opacity="1" fill="#f29558">
	<g id="svg_44" fill="#f29558">
		<path d="M277.227,341.333h-34.133c-5.12,0-8.533,3.413-8.533,8.533V384c0,5.12,3.413,8.533,8.533,8.533h34.133    c5.12,0,8.533-3.413,8.533-8.533v-34.133C285.76,344.747,282.347,341.333,277.227,341.333z M268.693,375.467h-17.067V358.4h17.067    V375.467z" id="svg_45" fill="#f29558"/>
	</g>
</g><g id="svg_46" class="" fill-opacity="1" fill="#f29558">
	<g id="svg_47" fill="#f29558">
		<path d="M345.493,341.333H311.36c-5.12,0-8.533,3.413-8.533,8.533V384c0,5.12,3.413,8.533,8.533,8.533h34.133    c5.12,0,8.533-3.413,8.533-8.533v-34.133C354.027,344.747,350.613,341.333,345.493,341.333z M336.96,375.467h-17.067V358.4h17.067    V375.467z" id="svg_48" fill="#f29558"/>
	</g>
</g><g id="svg_49" class="" fill-opacity="1" fill="#f29558">
	<g id="svg_50" fill="#f29558">
		<path d="M354.027,247.467h-179.2c-5.12,0-8.533,3.413-8.533,8.533s3.413,8.533,8.533,8.533h179.2c5.12,0,8.533-3.413,8.533-8.533    S359.147,247.467,354.027,247.467z" id="svg_51" fill="#f29558"/>
	</g>
</g><g id="svg_52" class="" fill-opacity="1" fill="#f29558">
	<g id="svg_53" fill="#f29558">
		<path d="M354.027,298.667h-179.2c-5.12,0-8.533,3.413-8.533,8.533s3.413,8.533,8.533,8.533h179.2c5.12,0,8.533-3.413,8.533-8.533    S359.147,298.667,354.027,298.667z" id="svg_54" fill="#f29558"/>
	</g>
</g><g id="svg_55" class="" fill-opacity="1" fill="#f29558">
	<g id="svg_56" fill="#f29558">
		<path d="M80.96,34.133c-14.507,0-25.6-11.093-25.6-25.6c0-11.093-17.067-11.093-17.067,0c0,14.507-11.093,25.6-25.6,25.6    C1.6,34.133,1.6,51.2,12.693,51.2c14.507,0,25.6,11.093,25.6,25.6c0,11.093,17.067,11.093,17.067,0    c0-14.507,11.093-25.6,25.6-25.6C92.053,51.2,92.053,34.133,80.96,34.133z M46.827,51.2c-2.56-3.413-5.12-5.973-8.533-8.533    c3.413-2.56,5.973-5.12,8.533-8.533c2.56,3.413,5.12,5.973,8.533,8.533C51.947,45.227,49.387,47.787,46.827,51.2z" id="svg_57" fill="#f29558"/>
	</g>
</g><g class="" fill-opacity="1" fill="#f29558" id="svg_91">
	<g id="svg_93" fill="#f29558">
		<path d="M82.10754104614257,398.39529858398436 c-14.507,0 -25.6,-11.093 -25.6,-25.6 c0,-11.093 -17.067,-11.093 -17.067,0 c0,14.507 -11.093,25.6 -25.6,25.6 C2.7475410461425795,398.39529858398436 2.7475410461425795,415.46229858398436 13.840541046142576,415.46229858398436 c14.507,0 25.6,11.093 25.6,25.6 c0,11.093 17.067,11.093 17.067,0 c0,-14.507 11.093,-25.6 25.6,-25.6 C93.20054104614258,415.46229858398436 93.20054104614258,398.39529858398436 82.10754104614257,398.39529858398436 zM47.974541046142576,415.46229858398436 c-2.56,-3.4130000000000003 -5.12,-5.973 -8.533,-8.533 c3.4130000000000003,-2.56 5.973,-5.12 8.533,-8.533 c2.56,3.4130000000000003 5.12,5.973 8.533,8.533 C53.09454104614258,409.48929858398435 50.53454104614258,412.0492985839844 47.974541046142576,415.46229858398436 z" id="svg_57" fill="#f29558"/>
	</g>
</g><g class="" fill-opacity="1" fill="#f29558" id="svg_95">
	<g id="svg_97" fill="#f29558">
		<path d="M493.09115310668943,291.3461195068359 c-14.507,0 -25.6,-11.093 -25.6,-25.6 c0,-11.093 -17.067,-11.093 -17.067,0 c0,14.507 -11.093,25.6 -25.6,25.6 C413.7311531066895,291.3461195068359 413.7311531066895,308.4131195068359 424.82415310668944,308.4131195068359 c14.507,0 25.6,11.093 25.6,25.6 c0,11.093 17.067,11.093 17.067,0 c0,-14.507 11.093,-25.6 25.6,-25.6 C504.18415310668945,308.4131195068359 504.18415310668945,291.3461195068359 493.09115310668943,291.3461195068359 zM458.95815310668945,308.4131195068359 c-2.56,-3.4130000000000003 -5.12,-5.973 -8.533,-8.533 c3.4130000000000003,-2.56 5.973,-5.12 8.533,-8.533 c2.56,3.4130000000000003 5.12,5.973 8.533,8.533 C464.07815310668946,302.4401195068359 461.51815310668945,305.000119506836 458.95815310668945,308.4131195068359 z" id="svg_57" fill="#f29558"/>
	</g>
</g><g id="svg_58" class="" fill-opacity="1" fill="#f29558">
	<g id="svg_59" fill="#f29558">
		<path d="M464.96,119.467c-5.12,0-8.533,3.413-8.533,8.533v34.133c0,5.12,3.413,8.533,8.533,8.533s8.533-3.413,8.533-8.533V128    C473.493,122.88,470.08,119.467,464.96,119.467z" id="svg_60" fill="#f29558"/>
	</g>
</g><g id="svg_61" class="" fill-opacity="1" fill="#f29558">
	<g id="svg_62" fill="#f29558">
		<path d="M482.027,135.71332789230345 h-34.133 c-5.12,0 -8.533,3.4130000000000003 -8.533,8.533 c0,5.12 3.4130000000000003,8.533 8.533,8.533 h34.133 c5.12,0 8.533,-3.4130000000000003 8.533,-8.533 C490.56,139.12732789230347 487.147,135.71332789230345 482.027,135.71332789230345 z" id="svg_63" fill="#f29558"/>
	</g>
</g><g class="" fill-opacity="1" fill="#f29558" id="svg_107">
	<g id="svg_109" fill="#f29558">
		<path d="M482.027,135.71332789230345 h-34.133 c-5.12,0 -8.533,3.4130000000000003 -8.533,8.533 c0,5.12 3.4130000000000003,8.533 8.533,8.533 h34.133 c5.12,0 8.533,-3.4130000000000003 8.533,-8.533 C490.56,139.12732789230347 487.147,135.71332789230345 482.027,135.71332789230345 z" id="svg_63" fill="#f29558"/>
	</g>
</g><g class="" fill-opacity="1" fill="#f29558" id="svg_111">
	<g id="svg_113" fill="#f29558">
		<path d="M482.027,135.71332789230345 h-34.133 c-5.12,0 -8.533,3.4130000000000003 -8.533,8.533 c0,5.12 3.4130000000000003,8.533 8.533,8.533 h34.133 c5.12,0 8.533,-3.4130000000000003 8.533,-8.533 C490.56,139.12732789230347 487.147,135.71332789230345 482.027,135.71332789230345 z" id="svg_63" fill="#f29558"/>
	</g>
</g><g id="svg_76" class="" fill-opacity="1" fill="#f29558">
</g><g id="svg_77" class="" fill-opacity="1" fill="#f29558">
</g><g id="svg_78" class="" fill-opacity="1" fill="#f29558">
</g><g id="svg_79" class="" fill-opacity="1" fill="#f29558">
</g><g id="svg_80" class="" fill-opacity="1" fill="#f29558">
</g><g id="svg_81" class="" fill-opacity="1" fill="#f29558">
</g><g id="svg_82" class="" fill-opacity="1" fill="#f29558">
</g><g id="svg_83" class="" fill-opacity="1" fill="#f29558">
</g><g id="svg_84" class="" fill-opacity="1" fill="#f29558">
</g><g id="svg_85" class="" fill-opacity="1" fill="#f29558">
</g><g id="svg_86" class="" fill-opacity="1" fill="#f29558">
</g><g id="svg_87" class="" fill-opacity="1" fill="#f29558">
</g><g id="svg_88" class="" fill-opacity="1" fill="#f29558">
</g><g id="svg_89" class="" fill-opacity="1" fill="#f29558">
</g><g id="svg_90" class="" fill-opacity="1" fill="#f29558">
</g></g></svg>